<?xml version="1.0" standalone="no"?><!DOCTYPE svg PUBLIC "-//W3C//DTD SVG 1.1//EN" "http://www.w3.org/Graphics/SVG/1.1/DTD/svg11.dtd"><svg t="1620036975688" class="icon" viewBox="0 0 1024 1024" version="1.1" xmlns="http://www.w3.org/2000/svg" p-id="4500" xmlns:xlink="http://www.w3.org/1999/xlink" width="200" height="200"><defs><style type="text/css"></style></defs><path d="M54.044444 284.444444H426.666667s70.162963 227.555556 128 134.637037c0 0 74.903704-2.844444 135.585185-62.577777 0 0 36.977778-41.718519 38.874074-73.007408H938.666667s-18.014815 454.162963-385.896297 467.437037C192.474074 765.155556 61.62963 518.637037 54.044444 284.444444z" fill="#73B34D" p-id="4501"></path><path d="M82.488889 284.444444h349.866667s65.422222 213.333333 119.466666 126.103704c0 0 70.162963-2.844444 127.051852-57.837037 0 0 34.133333-38.874074 36.977778-68.266667h196.266667s-16.118519 425.718519-361.244445 438.044445C211.437037 734.814815 89.125926 503.466667 82.488889 284.444444z" fill="#C3F2A5" p-id="4502"></path><path d="M104.296296 284.444444h330.903704s86.281481 111.881481 137.481481 29.392593c0 0 42.666667 88.177778 96.711112 35.081482 0 0 32.237037-36.977778 35.081481-64.474075h185.837037s-15.17037 402.962963-342.281481 414.340741C226.607407 710.162963 110.933333 492.088889 104.296296 284.444444z" fill="#F66E60" p-id="4503"></path><path d="M744.296296 417.185185c16.118519 17.066667 36.02963 22.755556 44.562963 13.274074 8.533333-9.481481 0-29.392593-18.014815-43.614815-18.014815-14.222222-37.925926-19.911111-44.562963-12.325925-5.688889 7.585185 1.896296 25.6 18.014815 42.666666zM663.703704 476.918519c10.42963 20.859259 28.444444 32.237037 38.874074 26.548148 10.42963-6.637037 7.585185-27.496296-5.688889-46.45926-13.274074-18.962963-30.340741-30.340741-37.925926-25.6-8.533333 4.740741-5.688889 24.651852 4.740741 45.511112zM573.62963 510.103704c4.740741 22.755556 18.014815 38.874074 29.392592 36.029629 11.377778-2.844444 14.222222-23.703704 6.637037-45.511111s-20.859259-36.977778-29.392592-35.081481c-8.533333 1.896296-11.377778 21.807407-6.637037 44.562963zM478.814815 517.688889c-1.896296 22.755556 6.637037 42.666667 18.962963 42.666667 11.377778 0 19.911111-18.962963 18.962963-42.666667-1.896296-22.755556-9.481481-41.718519-18.962963-41.718519-9.481481 0.948148-18.014815 18.962963-18.962963 41.718519zM384 500.622222c-7.585185 21.807407-4.740741 42.666667 6.637037 45.511111 11.377778 2.844444 24.651852-13.274074 29.392593-36.029629s1.896296-42.666667-6.637037-44.562963c-8.533333-2.844444-21.807407 13.274074-29.392593 35.081481zM297.718519 457.007407c-13.274074 18.962963-16.118519 39.822222-5.688889 46.45926 10.42963 6.637037 27.496296-5.688889 38.874074-26.548148 10.42963-20.859259 13.274074-40.77037 5.688889-45.511112-8.533333-4.740741-25.6 6.637037-38.874074 25.6zM222.814815 386.844444c-18.014815 14.222222-26.548148 34.133333-18.014815 43.614815 8.533333 9.481481 28.444444 2.844444 44.562963-13.274074 16.118519-17.066667 23.703704-35.081481 17.066667-42.666666-5.688889-6.637037-25.6-1.896296-43.614815 12.325925z" fill="#873424" p-id="4504"></path></svg>